<svg width="146" height="73" viewBox="0 0 146 73" fill="none" xmlns="http://www.w3.org/2000/svg">
<rect x="1" y="5" width="145" height="63" fill="#E1B166"/>
<path d="M19.1049 31.9305L19.0706 31.909L19.0448 31.8776C18.1182 30.751 16.3539 29.381 14.0905 28.9467C11.8417 28.5152 9.06802 29.0009 6.08852 31.6352L6.08171 31.6412L6.07448 31.6467C3.14059 33.8829 2.71698 37.2005 2.87261 38.6766L3.73865 39.2205L3.95036 39.3534L3.8174 39.5651L3.51373 40.0487L3.42519 40.1897L4.29335 40.2743L4.69595 40.3135L4.48082 40.656L4.08861 41.2806L4.95677 41.3652L5.35937 41.4044L5.14424 41.7469L4.75202 42.3715L5.62018 42.456L5.69552 42.4634L5.75413 42.5113C6.89621 43.4445 10.0854 44.9676 13.6091 43.5201C18.0602 41.6916 20.1125 38.4022 20.1903 35.1969C20.0706 34.6762 19.8718 33.8979 19.6562 33.2181C19.5462 32.871 19.4336 32.5553 19.3268 32.3145C19.2733 32.1938 19.2237 32.0974 19.1794 32.0273C19.1343 31.9558 19.1079 31.9331 19.1052 31.9307C19.105 31.9306 19.1049 31.9305 19.1049 31.9305Z" fill="#FFDF88" stroke="#FFD256" stroke-width="0.5"/>
<path d="M126.964 40.6169L126.967 40.5765L126.958 40.5371C126.617 39.1651 126.571 37.0006 127.542 34.9891C128.506 32.991 130.488 31.114 134.26 30.3191L134.269 30.3172L134.278 30.3147C137.711 29.3263 140.534 30.9114 141.594 31.8857L141.517 32.871L141.497 33.1203L141.746 33.1398L142.298 33.1832L142.447 33.1949L142.017 33.9094L141.808 34.2559L142.212 34.2876L142.913 34.3427L142.482 35.0571L142.274 35.4036L142.677 35.4353L143.378 35.4904L142.948 36.2048L142.909 36.2697L142.912 36.3453C142.978 37.7727 142.319 41.1338 139.156 43.0376C135.159 45.4433 131.414 45.1376 128.877 43.3458C128.541 42.9514 128.05 42.3468 127.646 41.7862C127.44 41.4997 127.259 41.2297 127.134 41.0075C127.071 40.8962 127.025 40.8022 126.996 40.7276C126.968 40.6561 126.965 40.623 126.964 40.6176C126.964 40.6168 126.964 40.6166 126.964 40.6169Z" fill="#FFDF88" stroke="#FFD256" stroke-width="0.5"/>
<path d="M72.071 5.31959C72.071 3.19389 72.3775 1.5352 72.5307 0.971563C72.5307 0.391836 74.0633 0.0858601 74.8295 0.00533481C76.8525 -0.187911 77.0517 4.91699 76.8984 7.4936C77.0823 7.4936 76.975 13.1299 76.8984 15.9481L76.6685 24.8857V35.2727V44.9349L76.8985 58.9452C77.0824 60.6844 76.9751 66.2725 76.8985 68.8491C76.8985 73.4387 75.0594 73.0361 74.1399 72.9555C71.5652 73.1488 71.8411 59.8309 72.3008 53.1479C72.5307 52.9063 72.3008 42.2778 72.3008 41.7947V31.4077C72.3008 31.1662 72.071 17.8806 72.071 16.9143V5.31959Z" fill="#1E1616"/>
</svg>
